<svg viewBox="0 0 1080 189.13" fill="none" xmlns="http://www.w3.org/2000/svg" class=""><path fill="#754FF0" d="M716.82,104.22c-18.88,10.51-39.64,12.4-60.41,5.39-2.69-.81-3.78,1.89-2.15,4,20.22,24.54,56.09,18.87,65.27-5.93C720.6,105.29,719.25,102.86,716.82,104.22Z"></path><path fill="#754FF0" d="M544.24,96.31a8.3,8.3,0,0,0-7.69,8.65c.26,5.22.5,9.93.75,14.62a8.43,8.43,0,0,0,.52,2.46A8.09,8.09,0,0,0,545,127.5c17.95,1.35,46.64,1.48,52.11-11.37a12.32,12.32,0,0,0,.9-4.47,10.8,10.8,0,0,0-1.19-5C590.76,95,563.12,94.78,544.24,96.31Z"></path><path fill="#754FF0" d="M1023.91,107.62c5.67-.63,16.89-2.73,22.54-3.47,15.77-2.06,5.14-13.85.24-16.34-11.9-6.09-19.64,2-24,8.42S1016.76,108.42,1023.91,107.62Z"></path><path fill="#754FF0" d="M769.54,117.84c2.21-.18,2.51-2.2,3.15-3.78a25.12,25.12,0,0,1,3.78-6.29c1.57-1.91,5-3.79,5-6.63a4.34,4.34,0,0,0-5.69-4.09c-4.72,1.88-7.56,9.14-8.5,13.54C766.7,112.8,765.71,118.15,769.54,117.84Z"></path><path fill="#754FF0" d="M1075.39,128.33a2.51,2.51,0,0,1,.09-3,17.46,17.46,0,0,0,4-9.5,79.56,79.56,0,0,0,.33-9.47c0-8-2.89-20.47-11-31.53a47.84,47.84,0,0,0-39.47-19.93c-25.8,0-42.72,15.37-51.47,33a.77.77,0,0,1-1.46-.31c-1.79-35.21-2.26-66.44-2.27-67a11.31,11.31,0,0,0-.08-1.29,18.71,18.71,0,0,0-18.7-16.59l-1.06,0L948.44,3c-.27,0-.54,0-.81.06-8.8,1.08-15.25,7.89-16.4,17.32-.14,1.2-.79,14.52-1.41,33.11a1.31,1.31,0,0,1-1.68,1.2,17,17,0,0,0-4.94-.74h-85a16.84,16.84,0,0,0-16.79,13.46l-1.72,8.33h0a1.3,1.3,0,0,1-1.85.9l-.46-.22a60.07,60.07,0,0,0-25.24-5.69,54,54,0,0,0-40.94,18.42,1.27,1.27,0,0,1-2.15-.41,64.94,64.94,0,0,0-12-20.52c-8.89-10.21-25.53-22.4-54.23-22.4a63,63,0,0,0-58.67,39.45,1.3,1.3,0,0,1-2.15.43A51.94,51.94,0,0,0,607,74.34c-15.84-8.1-35.88-9.8-49.89-9.8-3,0-5.86.08-8.34.19a1.27,1.27,0,0,1-1.34-1.18,147.41,147.41,0,0,1,2.94-43.43A16.05,16.05,0,0,0,547.8,7.05,16.69,16.69,0,0,0,535.4.3c-2.09-.15-4.34-.3-6.66-.3a52.11,52.11,0,0,0-9.91,1A20.08,20.08,0,0,0,503.77,14.4l-.09.29-.46,1.5a277.37,277.37,0,0,0-11.13,53.16,1.29,1.29,0,0,1-2.28.67c-6.29-7.55-16.82-14.68-34.15-14.68-1.59,0-3.24.06-4.94.19a44.46,44.46,0,0,0-19.91,6.67,1.26,1.26,0,0,1-1.75-.44c-7.55-12.57-20.86-19.58-38-19.58-1.79,0-3.64.08-5.54.23-12.76,1-23.45,5.85-31.43,14.1a1.21,1.21,0,0,1-1.47.21,15.39,15.39,0,0,0-7.32-1.82,16.1,16.1,0,0,0-5.95,1.15l-.26.1-17.6,7.45h0a3.09,3.09,0,0,1-3.57-.81c-5.09-5.92-12.16-10-21-11.79a52.12,52.12,0,0,0-10.13-1c-18.36,0-36.4,8.9-45.46,14.17A16.13,16.13,0,0,0,238.88,66a1.25,1.25,0,0,1-1.87-.29,39.06,39.06,0,0,0-5-6.25c-8.56-8.63-20.58-12.83-36.76-12.83-23.93,0-54.31,15.68-64,23a1.53,1.53,0,0,1-2.29-1.72,43.64,43.64,0,0,0,1.37-11.16c0-18.21-8.48-32.18-24.53-40.4-11-5.65-25.6-8.5-43.36-8.5a211.45,211.45,0,0,0-37.07,3.56A19.93,19.93,0,0,0,9.65,24.77c0,.11-.07.22-.1.32-2.9,9.59-8,30.46-9.24,62.58,0,0,0,.08,0,.11-.4,10-.4,20.45,0,31.14.36,9.78,1.05,19.77,2,29.65.5,5.14,1.12,10.64,1.86,16.33,0,.15,0,.29.07.44a20.38,20.38,0,0,0,11.56,15.31,3.93,3.93,0,0,0,.43.18c13.28,5.43,29.54,8.3,47,8.3,19,0,38.31-5.47,52.92-15a66.62,66.62,0,0,0,17.17-15.93,1.26,1.26,0,0,1,2.13.14c6.22,12,17.78,19.16,32.54,19.16a68.26,68.26,0,0,0,14.58-1.55,1.22,1.22,0,0,1,1.38.73,15.37,15.37,0,0,0,2.56,4,15,15,0,0,0,11.19,5h19.83a15.07,15.07,0,0,0,14.62-11.22c0-.09.05-.18.08-.29,1.25-5,2.56-10.37,3.84-15.86a1.28,1.28,0,0,1,2.18-.58c3.67,3.77,9.47,7.58,18.44,9.2A67.37,67.37,0,0,0,268,168a1.31,1.31,0,0,1,1.12.68,16.11,16.11,0,0,0,4,4.76,15.76,15.76,0,0,0,6.4,3.08l.31.06,8.71,1.7a15.17,15.17,0,0,0,3.3.36,15.39,15.39,0,0,0,8.89-2.86,16,16,0,0,0,5.79-7.51l1-2.75c2.32-6.57,6.23-17.69,9.94-29.28a1.29,1.29,0,0,1,2.5.22c2.82,20.16,5.31,38,5.31,38,0,.29.1.57.16.86a15.68,15.68,0,0,0,15.47,12.37,17.05,17.05,0,0,0,2.13-.14c.26,0,.52-.08.78-.14L355.3,185a15.66,15.66,0,0,0,10.25-6.4,15.4,15.4,0,0,0,2.63-11.7c-1.7-11.73,2.27-34.84,8-48.55,1.73-4.11,3.9-8.51,7-8.51,3.49,0,5.68,3.49,8.66,13.09,3.3,10.66,4.31,23,4.59,27.8,0,.21,0,.43.05.64a16.09,16.09,0,0,0,14.08,14.15c.36,0,.72.07,1.08.08l8.41.25h.34a15.57,15.57,0,0,0,15.72-14c2-16.13,6.08-28.61,11.75-28.61,5.29,0,7.14,16,5.05,44.61a15.66,15.66,0,0,0,3.18,11,15.33,15.33,0,0,0,10.16,5.88l7.2,1.21.67.09a15.46,15.46,0,0,0,1.79.1,15.94,15.94,0,0,0,9.95-3.44,15.69,15.69,0,0,0,5.53-8.89,2.44,2.44,0,0,0,.06-.26c.63-3.17,1.22-6.2,1.79-9.11a1.28,1.28,0,0,1,2.38-.36A20.09,20.09,0,0,0,505,173l.45.2c13.35,5.41,29.59,8.26,46.95,8.26,28.34,0,55.73-11.94,69.79-30.44a57.81,57.81,0,0,0,5.14-8.11,1.29,1.29,0,0,1,2.25,0,63.3,63.3,0,0,0,4.56,7c8.39,11.12,24.29,24.39,52.45,24.39,26.57,0,43.88-9.86,54.16-23.49a1.26,1.26,0,0,1,2.13.14,53.3,53.3,0,0,0,25.36,23,67.3,67.3,0,0,0,26,5.5A55.87,55.87,0,0,0,811,176.86a53.54,53.54,0,0,0,13-6.12,1.26,1.26,0,0,1,1.94.81,16.94,16.94,0,0,0,1.88,5.06,17.13,17.13,0,0,0,14.86,8.69h78.5a16.83,16.83,0,0,0,11.39-4.4,1.29,1.29,0,0,1,1.91.16,18.76,18.76,0,0,0,15,7.54l.72,0h16.08c.26,0,.53,0,.79,0a19.42,19.42,0,0,0,14-7.52,16,16,0,0,0,3-13c-.82-4.22-1.58-9-2.28-14.28v-.07a.38.38,0,0,1,.38-.39.4.4,0,0,1,.33.17c7.11,10,20.19,21.49,42.64,21.49,29.72,0,45.75-17,51.32-24.39a17.28,17.28,0,0,0-1.08-22.22ZM63.24,177.54c-21.79,0-35.91-4.71-42.6-7.44a8.69,8.69,0,0,1-4.94-6.68q-1.06-8.22-1.82-16c-1-10.31-1.65-19.95-2-29-.42-11.1-.37-21.22,0-30.34v0c1.25-31.44,6.2-51.24,8.75-59.68a8.32,8.32,0,0,1,6.69-5.68C46.89,19,118.71,9.39,118.71,56.68c0,9.17-3.15,15.18-7.18,19.08-3.68,3.55-3,9.3,1,12.37,1.62,1.27,5.56,3.58,7.87,5.67,6.86,6.22,12.63,15.92,12.45,30.75C132.83,160.19,94.7,177.54,63.24,177.54ZM221,171.34a3.42,3.42,0,0,1-3.45,2.73H197.73a3.6,3.6,0,0,1-3.46-4.21l.74-4.71a3.5,3.5,0,0,0-5-3.71,55.84,55.84,0,0,1-22,4.45c-18.57,0-26-14.86-26-29.95,0-32,56-27,56-45.08,0-4.47-5.2-7.18-12.88-7.18-16.84,0-32.43,8.18-38.14,11.63a3.75,3.75,0,0,1-4.45-.74l-7.93-8.66a3.42,3.42,0,0,1,.5-5.2c8.67-6.2,33.92-22.54,60.17-22.54,29,0,38.89,15.6,38.63,44.08C233.88,119.34,223.73,160.45,221,171.34Zm93.47-67.85c-3.47,17.59-15.36,50.76-18.83,60.67a4.09,4.09,0,0,1-4.7,2.73L282,165.15a4.22,4.22,0,0,1-3.31-4.08,3.77,3.77,0,0,1,.1-.88c1.73-5.19.74-4.95-2-4.45a55.77,55.77,0,0,1-18.08-.24c-15.09-2.73-19.05-13.62-16.35-27.5,5.24-26.73,44.37-22.41,47.21-40.35.6-3.84-2.5-6.44-8.09-6.85-6.54-.46-16.58.89-28.21,6.35a4.2,4.2,0,0,1-5.7-2.23l-2.24-5.71a4,4,0,0,1,1.74-4.94c7.68-4.47,29-15.6,47.55-11.89C317.92,67.09,316.94,90.86,314.47,103.49Zm165.62,67.85a4.18,4.18,0,0,1-4.71,3.23L468,173.31a3.93,3.93,0,0,1-3.47-4.44c1-13.63,3.51-57.45-14.61-57.7-20-.29-24,29.21-25.26,39.37a4.07,4.07,0,0,1-4.21,3.71L412,154a4.5,4.5,0,0,1-4-4c-.74-12.63-4.94-53.24-25.25-51.76-23,1.74-28.48,54.49-26,70.59a4,4,0,0,1-3.47,4.7l-11.88,2.48a4.15,4.15,0,0,1-4.69-3.22L323.58,79a4.47,4.47,0,0,1,2.48-4.7l17.57-7.44c2.47-1,5,.18,5.7,3.47A4.17,4.17,0,0,0,357,71.79C362.2,62.88,371.12,55.2,386.47,54c25.27-2,33.43,12.39,36.16,22a4.2,4.2,0,0,0,6.94,1.74c4.71-4.47,12.39-9.91,22-10.65,33.67-2.48,37.4,25.75,38.13,35.9C490.48,112.9,488,131.47,480.09,171.34ZM613,144c-13.19,17.37-38.51,25.86-60.55,25.86-21.79,0-35.9-4.7-42.6-7.42a8.69,8.69,0,0,1-4.94-6.68C495,79,510.56,31.92,514.77,18.06a8.38,8.38,0,0,1,6.18-5.7,46.47,46.47,0,0,1,13.62-.5c3.22.24,5.21,2.73,4.47,5.69-5.7,26.5-3.23,45.33-2.73,52.75.24,3.47,3.23,6.44,6.44,6.44,12.29-1.07,39.82-1.86,59,7.92,9.24,4.71,16.5,11.89,19.18,22.67a39.11,39.11,0,0,1,1.09,8c0,.51,0,1,0,1.57A44,44,0,0,1,613,144Zm73.64,18.23c-41.86,0-55-33.93-55-56.47S651.43,57,682.88,57C726,57,741.56,88,741.56,111.19S728.43,162.21,686.59,162.21Zm88.78.89c-16.84-7.06-32.37-29.61-21-54.21,12.24-26.41,39.24-32.58,60.92-22.43,25.74,12.05,27.16,40.27,19.58,57.69S804.18,175.18,775.37,163.1ZM927.65,74.16l-50,69.85a5.59,5.59,0,0,0,4,8.65l40.87,4.47a5.69,5.69,0,0,1,4.71,7.18l-.76,5.45a5.26,5.26,0,0,1-5.19,4h-78.5a5.56,5.56,0,0,1-4.71-8.42l40.85-66.12a5.58,5.58,0,0,0-4-8.41l-39.39-6a5.54,5.54,0,0,1-4.45-6.68l1.74-8.42a5.35,5.35,0,0,1,5.44-4.21h85A5.49,5.49,0,0,1,927.65,74.16ZM966.27,177H949.92a7.38,7.38,0,0,1-7.68-6.68c-4.7-36.4.21-146.18.5-148.59.45-3.69,2.48-6.68,6.2-7.18l5.95-.25a7.16,7.16,0,0,1,7.67,6.44S964,126,972.72,170.31C973.46,173.78,969.74,176.75,966.27,177Zm101-33.47c-5.2,6.94-18.33,19.82-42.1,19.82-32.43,0-42.84-30.21-42.84-46.57,0-16.83,12.62-50.26,47-50.26,28.48,0,38.89,27.24,38.89,39.87a69.4,69.4,0,0,1-.26,8.18,5.55,5.55,0,0,1-5,5.18l-35.91,4.71a5.76,5.76,0,0,0-4.71,7.68c1.73,4.21,5.46,9.17,13.62,9.17,9.41,0,17.35-4.46,21.8-7.68,2.23-1.49,5.82-1.75,8.5,1.69C1068.63,138.24,1069,141.3,1067.25,143.52Z"></path><path fill="#754FF0" d="M691.88,93.67a2.87,2.87,0,0,0,3.44-2c1.29-3.62,3.89-12.43,8.95-11.73,5.78,1.1,6.81,9.81,7.21,11.92a2.81,2.81,0,0,0,2.9,2.53c1.64,0,2.51-1.15,2.53-2.88,0-1.36-.37-19.5-12.64-20.23-11.92-.7-14.08,16.32-14.4,19.22A2.62,2.62,0,0,0,691.88,93.67Z"></path><path fill="#754FF0" d="M197.48,116.37c-13.12,1.73-30.71,9.41-30.71,17.33,0,16.34,25.27,2.24,31.45-1.49a3.5,3.5,0,0,0,1.74-2.48l1.49-9.15A3.52,3.52,0,0,0,197.48,116.37Z"></path><path fill="#754FF0" d="M789.72,127.66c2.21,0,2.51-2.21,3.15-3.79a25.6,25.6,0,0,1,3.78-6.29c1.57-2.21,5.05-3.79,5.05-6.94a4.35,4.35,0,0,0-5.68-4.1c-4.73,1.9-7.57,9.13-8.51,13.55C787.2,122.3,785.94,128,789.72,127.66Z"></path><path fill="#754FF0" d="M800.79,140a51,51,0,0,1-39.43-15.66c-1.3-1.31-2.61,0-2.61,1.83,1.31,18.54,24.29,29.5,42.82,17C803.14,142.09,802.87,140,800.79,140Z"></path><path fill="#754FF0" d="M55.82,71.05c16.34,0,36.26-1.49,36.26-10.65,0-9.41-20-12-35.74-10.26-5.55.59-9,4.75-9,11.74C47.39,66.85,50.86,71.05,55.82,71.05Z"></path><path fill="#754FF0" d="M284.25,115.87c-9.17.5-22.53,2.72-24.27,12.13-1,5.7,4.71,11.89,23.78,5.7a4.35,4.35,0,0,0,3-3.23l1.73-9.65A4.13,4.13,0,0,0,284.25,115.87Z"></path><path fill="#754FF0" d="M54.83,99.28A8.26,8.26,0,0,0,47.15,108c.24,5.19.5,9.9.74,14.6a8.72,8.72,0,0,0,7.68,7.94c20.06,1.48,53,1.48,53-15.86C108.56,98,76.13,97.54,54.83,99.28Z"></path><path fill="#754FF0" d="M656.15,98.63c1.45,0,2.5-.89,2.64-2.88.12-2.17,0-10.84,5.41-12.64,4.69-1.8,9,7.49,10.82,10.47A3.09,3.09,0,0,0,678.63,95a3,3,0,0,0,1.45-3.61c-.64-2-5.79-19.5-17.33-17-11.92,2.53-9.55,21-9.39,21.66A2.81,2.81,0,0,0,656.15,98.63Z"></path></svg>