<svg xmlns="http://www.w3.org/2000/svg" width="1466" height="307" viewBox="0 0 1466 307" fill="none">
<path d="M209.292 10.7059C203.414 8.37512 197.373 6.41236 191.209 4.81762C177.331 1.21922 163.004 -0.375528 148.636 0.0742715C128.554 0.646744 109.043 5.10385 90.7155 13.282C81.5722 17.3711 72.8372 22.3189 64.6736 28.1254C67.1635 29.393 69.5717 30.9469 71.8575 32.7461C77.8986 37.4894 82.3886 43.5004 85.2459 50.1247C90.8379 46.4446 96.6749 43.2142 102.798 40.5154C117.574 33.9319 133.289 30.3335 149.493 29.8837C161.086 29.5566 172.596 30.8242 183.781 33.6866C187.413 34.6271 190.965 35.7311 194.475 36.9579C197.291 37.9801 200.067 39.0842 202.843 40.3109L223.048 17.0031C218.558 14.6723 213.986 12.5869 209.292 10.7468V10.7059ZM220.884 256.583C205.128 266.969 187.087 273.634 167.862 275.965C148.636 278.296 129.574 276.129 111.859 269.791C99.5322 265.415 87.899 258.995 77.2863 250.736C77.2047 250.695 77.1639 250.613 77.0823 250.572C76.9598 250.49 76.8782 250.408 76.7557 250.327C70.3065 245.501 61.1632 246.728 56.1834 253.066C51.1628 259.486 52.2241 268.728 58.51 273.839C58.5917 273.88 58.6325 273.962 58.7141 274.002C58.8366 274.125 58.9999 274.207 59.1223 274.33C70.7963 283.448 83.5315 290.727 97.1239 296.043C102.267 298.087 107.533 299.845 112.92 301.277C132.023 306.47 151.698 307.901 171.454 305.529C191.169 303.158 209.986 297.065 227.293 287.456C232.232 284.716 236.967 281.731 241.497 278.5C239.007 277.233 236.599 275.679 234.313 273.88C228.272 269.136 223.782 263.125 220.925 256.542L220.884 256.583ZM29.815 149.817C30.1823 136.813 32.5498 124.096 36.8765 111.911C37.2847 110.766 37.6928 109.58 38.1418 108.435C42.4686 97.2719 48.4688 86.8039 55.8977 77.2763C55.9793 77.1945 56.0201 77.1127 56.1018 77.031C56.1426 76.9492 56.2242 76.9083 56.2651 76.8265C61.1632 70.3657 59.9795 61.1244 53.5711 56.0948C47.2034 51.1061 38.0602 52.1284 32.9171 58.3029C32.8355 58.3847 32.7539 58.5074 32.6722 58.5892C32.5906 58.7118 32.509 58.8345 32.4273 58.9572C23.3657 70.6111 16.0185 83.4099 10.6713 97.0675C10.5897 97.2311 10.5488 97.3946 10.4672 97.5582C4.05878 114.037 0.548424 131.334 0.0586077 148.999C-0.594481 172.429 4.22205 196.064 13.9367 217.369C17.8961 225.997 22.631 234.216 28.1414 241.944C29.4068 239.45 30.9579 237.037 32.7539 234.747C37.4888 228.695 43.4482 224.238 50.0607 221.376C46.632 216.183 43.6115 210.703 40.9991 204.979C33.162 187.845 29.2843 168.749 29.815 149.858V149.817ZM305.255 136.813C306.276 146.3 306.439 155.746 305.704 165.151C304.929 175.21 303.173 185.187 300.439 195.001C299.051 199.949 297.418 204.815 295.54 209.558C290.193 223.134 282.928 235.892 273.825 247.587C273.703 247.71 273.621 247.873 273.499 247.996C273.376 248.118 273.254 248.282 273.172 248.405C268.029 254.497 258.967 255.479 252.641 250.531C246.232 245.501 245.089 236.301 249.947 229.84C249.987 229.758 250.069 229.677 250.11 229.636C250.151 229.554 250.232 229.513 250.273 229.431C258.518 218.882 264.886 207.228 269.294 194.797C270.192 192.221 271.05 189.604 271.784 186.946C273.417 181.139 274.601 175.251 275.376 169.281C276.642 159.631 276.723 149.858 275.662 140.044C274.723 131.293 272.886 122.788 270.152 114.528C269.825 113.506 269.458 112.524 269.131 111.543L291.744 88.4395C295.051 95.5545 297.826 102.915 300.03 110.439C302.52 119.026 304.275 127.817 305.255 136.813Z" fill="#000000"/>
<path d="M269.907 11.9735C264.233 11.9735 259.294 13.7727 255.866 15.9808C248.926 20.4379 241.13 30.0473 239.008 32.0509C218.884 51.3106 199.251 75.0682 183.209 96.2088C172.556 110.316 160.311 128.758 146.514 151.534C137.044 140.412 129.534 131.579 123.982 125.078C119.288 119.557 112.472 116.409 105.043 116.409C99.3284 116.409 93.3281 118.29 87.6952 122.379C74.7967 131.784 74.96 150.962 80.9194 158.976C86.8789 167.032 119.207 204.283 126.717 214.629C132.513 222.562 141.738 227.428 151.004 227.428C153.78 227.428 156.596 226.978 159.29 225.996C170.882 221.907 173.576 215.937 178.27 206.86C183.005 197.7 190.393 182.57 210.353 152.843C217.048 142.865 229.864 123.279 254.233 95.4727C278.642 67.6669 285.622 64.273 291.745 57.2806C297.867 50.2474 302.276 31.0287 288.479 19.2112C282.193 13.8136 275.662 11.9326 269.825 11.9326L269.907 11.9735Z" fill="#000000"/>
<path d="M462.282 62.2693V64.3139H491.508V91.3019H462.976V182.979H430.567V91.3019H409.26V63.6187H430.567V58.8345C430.567 34.3409 447.547 21.6238 474.528 21.6238C480.405 21.6238 486.528 22.0736 492.896 23.2185V47.2624C489.263 46.5672 484.977 46.3628 481.793 46.3628C467.752 46.3628 462.323 51.147 462.323 62.2284L462.282 62.2693Z" fill="#000000"/>
<path d="M492.202 122.87C492.202 86.5585 519.387 60.2247 556.531 60.2247C593.676 60.2247 620.86 86.5585 620.86 122.87C620.86 159.181 593.92 185.514 556.531 185.514C519.142 185.514 492.202 159.181 492.202 122.87ZM588.043 122.87C588.043 104.264 574.695 90.6476 556.572 90.6476C538.449 90.6476 525.101 104.264 525.101 122.87C525.101 141.475 538.449 155.092 556.572 155.092C574.695 155.092 588.043 141.475 588.043 122.87Z" fill="#000000"/>
<path d="M714.66 62.7191V92.6922C709.68 91.7926 705.15 91.0974 700.823 91.0974C681.108 91.0974 669.107 102.67 669.107 122.42V183.02H636.698V62.7191H666.821L667.964 76.0904C676.128 66.1131 687.679 60.879 700.823 60.879C705.354 60.879 710.129 61.5742 714.66 62.6782V62.7191Z" fill="#000000"/>
<path d="M922.383 113.342V183.02H889.974V116.736C889.974 99.7254 882.259 90.4022 867.564 90.4022C851.237 90.4022 840.829 100.829 840.829 116.736V183.02H808.419V116.736C808.419 99.7254 800.705 90.4022 786.01 90.4022C769.683 90.4022 759.274 100.829 759.274 116.736V183.02H726.865V62.7191H757.437L758.335 76.7856C766.948 66.3584 780.091 60.4292 795.48 60.4292C812.909 60.4292 825.848 67.4624 833.073 80.8338C844.176 67.2171 858.666 60.4292 876.34 60.4292C906.26 60.4292 922.342 79.0346 922.342 113.301L922.383 113.342Z" fill="#000000"/>
<path d="M1037.04 62.7191H1065.12V182.979H1037.04L1035.9 170.957C1025.49 180.035 1011.9 185.474 996.917 185.474C960.915 185.474 936.425 158.24 936.425 122.829C936.425 87.4172 962.017 60.1838 996.917 60.1838C1012.31 60.1838 1025.69 65.6223 1035.9 74.7001L1037.04 62.6782V62.7191ZM1032.96 122.87C1032.96 104.019 1019.61 90.6476 1001.24 90.6476C982.875 90.6476 969.324 104.019 969.324 122.87C969.324 141.72 982.671 155.092 1001.24 155.092C1019.82 155.092 1032.96 141.72 1032.96 122.87Z" fill="#000000"/>
<path d="M1161.17 155.296V182.979C1154.35 184.329 1147.58 185.024 1141.7 185.024C1114.51 185.024 1098.19 171.652 1098.19 142.579V90.4022H1076.88V62.7191H1098.19V37.0805L1130.6 33.6865V62.7191H1159.58V90.4022H1130.6V138.981C1130.6 151.698 1137.17 156.237 1149.62 156.237C1153.25 156.237 1157.09 155.991 1161.17 155.337V155.296Z" fill="#000000"/>
<path d="M1173.86 32.2963C1173.86 21.4193 1181.78 13.4456 1193.33 13.4456C1204.88 13.4456 1212.8 21.3784 1212.8 32.2963C1212.8 43.2141 1204.64 51.3514 1193.33 51.3514C1182.03 51.3514 1173.86 43.1732 1173.86 32.2963ZM1177.05 182.979V62.7191H1209.46V182.979H1177.05Z" fill="#000000"/>
<path d="M1308.4 62.7191H1342.6V65.6633L1294.56 182.979H1267.62L1219.58 65.6633V62.7191H1253.78L1269.87 106.513L1281.17 138.04L1292.28 106.513L1308.36 62.7191H1308.4Z" fill="#000000"/>
<path d="M1372.77 133.501C1376.4 147.568 1387.5 155.95 1402.89 155.95C1413.3 155.95 1422.36 151.861 1427.14 145.523H1462.24C1453.87 170.017 1430.77 185.474 1402.89 185.474C1366.4 185.474 1339.71 159.14 1339.71 122.829C1339.71 86.5176 1366.44 60.1838 1402.89 60.1838C1443.43 60.1838 1470.41 91.5063 1464.98 133.501H1372.77ZM1372.97 111.502H1433.22C1429.59 98.335 1418.93 89.7071 1402.85 89.7071C1387.67 89.7071 1376.81 98.0897 1372.93 111.502H1372.97Z" fill="#000000"/>
<path d="M471.099 250.122C471.099 266.928 459.548 280.259 442.323 280.259C435.016 280.259 428.363 277.642 423.342 273.266L422.812 279.073H409.301V202.607H424.893V225.751C429.71 222.03 435.669 219.945 442.323 219.945C459.017 219.945 471.099 232.621 471.099 250.081V250.122ZM455.425 250.122C455.425 241.044 448.976 234.624 440.159 234.624C431.343 234.624 424.771 241.085 424.771 250.122C424.771 259.159 431.22 265.62 440.159 265.62C449.098 265.62 455.425 259.159 455.425 250.122Z" fill="#000000"/>
<path d="M512.53 221.212H528.979V222.725L497.917 296.779H481.14V295.347L490.855 273.389L469.711 222.725V221.212H486.284L494.039 240.554L499.264 255.193L504.733 240.676L512.57 221.253L512.53 221.212Z" fill="#000000"/>
<path d="M613.718 245.542V279.073H598.125V247.301C598.125 239 594.084 234.502 586.778 234.502C578.614 234.502 573.267 239.409 573.267 247.628V279.073H557.674V221.171H572.41L572.859 228.041C577.349 222.889 583.635 220.067 591.39 220.067C606.452 220.067 613.758 229.881 613.758 245.501L613.718 245.542Z" fill="#000000"/>
<path d="M636.29 255.274C638.045 262.062 643.392 266.07 650.78 266.07C655.801 266.07 660.168 264.107 662.454 261.04H679.353C675.312 272.817 664.209 280.259 650.78 280.259C633.229 280.259 620.371 267.582 620.371 250.122C620.371 232.662 633.229 219.985 650.78 219.985C670.291 219.985 683.271 235.074 680.659 255.274H636.29ZM636.412 244.684H665.434C663.679 238.345 658.577 234.216 650.821 234.216C643.515 234.216 638.29 238.264 636.412 244.684Z" fill="#000000"/>
<path d="M755.683 221.212H771.806V222.521L752.744 279.114H738.131L732.335 264.27L725.681 246.237L718.906 264.27L713.028 279.114H698.619L679.435 222.521V221.212H695.68L700.823 238.018L706.824 256.91L719.681 224.361H731.559L744.662 257.033L750.54 238.018L755.683 221.212Z" fill="#000000"/>
<path d="M771.316 260.835H786.908C787.235 264.884 790.827 267.174 796.623 267.174C802.093 267.174 805.766 265.211 805.766 261.94C805.766 258.668 803.154 257.442 794.092 256.133C778.826 254.048 771.969 248.486 771.969 238.345C771.969 226.978 781.888 219.985 796.174 219.985C809.685 219.985 819.4 227.509 820.053 238.55H804.991C804.46 234.952 801.276 232.989 795.929 232.989C790.582 232.989 787.643 234.747 787.643 237.896C787.643 241.044 790.705 242.721 799.521 243.907C813.685 245.665 821.441 251.022 821.441 261.612C821.441 273.185 811.073 280.177 796.256 280.177C781.439 280.177 771.847 272.735 771.275 260.835H771.316Z" fill="#000000"/>
<path d="M840.298 255.274C842.054 262.062 847.401 266.07 854.789 266.07C859.809 266.07 864.177 264.107 866.463 261.04H883.361C879.32 272.817 868.218 280.259 854.789 280.259C837.237 280.259 824.379 267.582 824.379 250.122C824.379 232.662 837.237 219.985 854.789 219.985C874.3 219.985 887.28 235.074 884.668 255.274H840.298ZM840.421 244.684H869.442C867.687 238.345 862.585 234.216 854.83 234.216C847.523 234.216 842.298 238.264 840.421 244.684Z" fill="#000000"/>
<path d="M892.342 279.073V202.607H907.934V279.073H892.342Z" fill="#000000"/>
<path d="M963.977 221.212H977.488V279.114H963.977L963.447 273.307C958.426 277.683 951.895 280.3 944.711 280.3C927.364 280.3 915.608 267.174 915.608 250.163C915.608 233.152 927.935 220.026 944.711 220.026C952.14 220.026 958.548 222.643 963.447 227.019L963.977 221.212ZM961.977 250.122C961.977 241.044 955.528 234.624 946.711 234.624C937.895 234.624 931.323 241.085 931.323 250.122C931.323 259.159 937.772 265.62 946.711 265.62C955.65 265.62 961.977 259.159 961.977 250.122Z" fill="#000000"/>
</svg>